<svg width="512" height="512" viewBox="0 0 512 512" fill="none" xmlns="http://www.w3.org/2000/svg">
<path d="M454.641 340.863L171.137 57.3588C149.97 36.192 113.778 51.1831 113.778 81.1175L113.778 364.622C113.778 383.179 128.821 398.222 147.378 398.222H430.882C460.817 398.222 475.808 362.03 454.641 340.863Z" fill="#46B5D1"/>
<path d="M340.863 454.641L57.3588 171.137C36.192 149.97 0 164.961 0 194.895L0 478.4C0 496.957 15.0432 512 33.6 512H317.105C347.039 512 362.03 475.808 340.863 454.641Z" fill="#151965"/>
<path d="M370.248 57.3587L454.641 141.752C475.808 162.919 512 147.928 512 117.994V33.5999C512 15.0432 496.957 -6.10352e-05 478.4 -6.10352e-05L394.006 -6.10352e-05C364.072 -6.10352e-05 349.081 36.1919 370.248 57.3587Z" fill="#2D679B"/>
<path d="M226.405 340.069L170.456 284.12C149.289 262.953 113.097 277.944 113.097 307.879V363.828C113.097 382.385 128.141 397.428 146.697 397.428H202.647C232.581 397.428 247.572 361.236 226.405 340.069Z" fill="#2D679B"/>
<path d="M283.764 397.428L113.097 226.761L113.097 355.273L184.265 397.428H283.764Z" fill="#2D679B"/>
</svg>
